<?xml version="1.0" encoding="utf-8"?>
<svg viewBox="0 0 500 500" xmlns="http://www.w3.org/2000/svg">
  <circle cx="239.881" cy="244.616" r="45" style="fill: rgb(234, 199, 132);" transform="matrix(4.182384014129639, 0, 0, 4.237607955932617, -763.973388671875, -736.5409545898438)"/>
  <g transform="matrix(4.182384014129639, 0, 0, 4.237607955932617, -28.371002197265625, -5.064175128936739)" style="">
    <path d="M31,72c0-22.8,17-41.7,39-44.6c-2-0.3-4-0.4-6-0.4c-24.9,0-45,20.1-45,45s20.1,45,45,45c2,0,4-0.1,6-0.4   C48,113.7,31,94.8,31,72z" fill="#FFFFFF"/>
  </g>
  <circle cx="287.381" cy="189.116" r="12.5" style="fill: rgb(11, 66, 26);" transform="matrix(4.182384014129639, 0, 0, 4.237607955932617, -763.973388671875, -736.5409545898438)"/>
  <path d="M 29.764 347.507 C 26.837 345.388 23.073 346.235 20.981 348.779 C 3.834 372.934 -1.186 394.121 6.344 410.224 C 15.126 429.294 40.221 438.193 75.77 438.193 C 83.3 438.193 91.665 437.767 100.029 436.92 C 135.579 473.788 184.93 497.094 239.72 497.094 C 346.789 497.094 434.201 408.528 434.201 300.046 C 434.201 293.266 433.784 286.485 432.948 279.706 C 467.242 245.381 483.135 213.174 472.68 189.868 C 465.569 174.189 446.748 164.443 418.308 161.901 C 414.962 161.476 412.034 164.02 411.616 167.832 C 411.198 171.647 413.709 174.189 417.472 174.613 C 433.784 175.884 454.694 180.546 461.387 194.954 C 468.497 210.633 457.623 235.211 430.855 263.603 C 414.125 172.07 334.661 102.574 239.72 102.574 C 132.652 102.574 45.24 191.14 45.24 299.622 C 45.24 347.083 61.969 390.73 89.574 424.632 C 51.095 427.174 25.164 419.971 18.053 404.292 C 11.363 389.46 21.818 369.966 31.438 355.982 C 33.11 353.439 32.691 349.628 29.764 347.507 Z M 239.302 484.383 C 191.623 484.383 148.126 465.736 115.503 435.224 C 161.927 428.444 218.391 410.647 277.362 382.68 C 336.334 354.711 386.103 322.082 421.236 290.723 C 421.236 293.688 421.655 297.081 421.655 300.046 C 421.236 401.748 339.678 484.383 239.302 484.383 Z M 239.302 115.71 C 331.314 115.71 407.435 185.207 419.564 275.043 C 386.941 306.403 336.751 340.727 271.926 371.238 C 212.536 399.206 153.144 417.852 104.63 423.784 C 75.352 391.153 57.369 347.507 57.369 300.046 C 57.369 198.343 138.924 115.71 239.302 115.71 Z" fill="#62355C" style="" transform="matrix(1, 0, 0, 1, 0, 2.842170943040401e-14)"/>
  <path d="M 437.965 5.533 C 405.76 5.533 379.413 32.229 379.413 64.859 C 379.413 97.487 405.76 124.186 437.965 124.186 C 470.17 124.186 496.519 97.487 496.519 64.859 C 496.519 32.229 470.17 5.533 437.965 5.533 Z M 437.965 111.473 C 412.453 111.473 391.959 90.707 391.959 64.859 C 391.959 39.009 412.453 18.245 437.965 18.245 C 463.478 18.245 483.971 39.009 483.971 64.859 C 483.971 90.707 463.478 111.473 437.965 111.473 Z" fill="#62355C" style="" transform="matrix(1, 0, 0, 1, 0, 2.842170943040401e-14)"/>
</svg>